<svg width="189" height="36" viewBox="0 0 189 36" fill="none" xmlns="http://www.w3.org/2000/svg">
<rect width="187" height="34" fill="white" rx="6" ry="6" x="1" y="1" stroke-width="2" stroke="black" />
<path d="M6 0H36V36H6C2.68629 36 0 33.3137 0 30V6C0 2.68629 2.68629 0 6 0Z" fill="black"/>
<g transform="translate(8.40 8.399999999999999) scale(0.8)"><path d="M3 4h18a1 1 0 011 1v5a1 1 0 01-1 1H3a1 1 0 01-1-1V5a1 1 0 011-1zm2 3h2v2H5V7zm5 0h2v2h-2V7zM3 13h18a1 1 0 011 1v5a1 1 0 01-1 1H3a1 1 0 01-1-1v-5a1 1 0 011-1zm2 3h2v2H5v-2zm5 0h2v2h-2v-2z" fill="white"/></g>
<path d="M52.950 22L48.989 22L48.989 12.178L52.746 12.178Q53.807 12.178 54.509 12.511Q55.211 12.844 55.564 13.421Q55.917 13.998 55.917 14.729Q55.917 15.626 55.419 16.140Q54.921 16.654 54.203 16.819L54.203 16.918Q54.724 16.944 55.205 17.234Q55.686 17.524 55.993 18.052Q56.299 18.579 56.299 19.324Q56.299 20.088 55.930 20.695Q55.561 21.301 54.819 21.651Q54.078 22 52.950 22M50.749 17.636L50.749 20.530L52.674 20.530Q53.649 20.530 54.081 20.154Q54.513 19.779 54.513 19.192Q54.513 18.533 54.031 18.084Q53.550 17.636 52.733 17.636L50.749 17.636M50.749 13.642L50.749 16.364L52.522 16.364Q53.221 16.364 53.689 15.985Q54.157 15.606 54.157 14.953Q54.157 14.380 53.755 14.011Q53.353 13.642 52.562 13.642L50.749 13.642M59.865 22.152Q59.167 22.152 58.606 21.898Q58.046 21.644 57.723 21.150Q57.400 20.655 57.400 19.930Q57.400 19.100 57.805 18.641Q58.211 18.183 58.853 17.976Q59.496 17.768 60.208 17.696Q61.170 17.590 61.599 17.501Q62.027 17.412 62.027 17.030L62.027 16.997Q62.027 16.456 61.698 16.156Q61.368 15.856 60.742 15.856Q60.096 15.856 59.714 16.140Q59.331 16.423 59.199 16.786L57.611 16.463Q57.934 15.487 58.781 15.013Q59.628 14.538 60.735 14.538Q61.256 14.538 61.787 14.660Q62.317 14.782 62.759 15.069Q63.201 15.355 63.471 15.847Q63.741 16.338 63.741 17.076L63.741 22L62.100 22L62.100 20.985L62.034 20.985Q61.790 21.459 61.256 21.806Q60.722 22.152 59.865 22.152M60.307 20.879Q61.098 20.879 61.569 20.425Q62.041 19.970 62.041 19.357L62.041 18.487Q61.922 18.579 61.619 18.648Q61.315 18.717 60.976 18.767Q60.636 18.816 60.412 18.849Q59.832 18.928 59.447 19.166Q59.061 19.403 59.061 19.910Q59.061 20.385 59.410 20.632Q59.760 20.879 60.307 20.879M68.758 22.152Q67.683 22.152 66.892 21.674Q66.101 21.196 65.669 20.342Q65.238 19.489 65.238 18.355Q65.238 17.208 65.669 16.348Q66.101 15.487 66.892 15.013Q67.683 14.538 68.758 14.538Q69.990 14.538 70.844 15.154Q71.698 15.771 71.935 16.852L70.333 17.188Q70.195 16.615 69.792 16.272Q69.390 15.929 68.771 15.929Q67.874 15.929 67.429 16.621Q66.984 17.313 66.984 18.348Q66.984 19.027 67.182 19.574Q67.380 20.121 67.775 20.441Q68.171 20.761 68.771 20.761Q69.404 20.761 69.809 20.401Q70.214 20.042 70.353 19.449L71.955 19.785Q71.717 20.886 70.860 21.519Q70.003 22.152 68.758 22.152M75.138 22L73.425 22L73.425 12.178L75.138 12.178L75.138 17.603L75.264 17.603L77.920 14.630L79.931 14.630L77.076 17.814L80.102 22L78.045 22L75.771 18.843L75.138 19.521L75.138 22M84.367 22.152Q83.253 22.152 82.452 21.684Q81.651 21.216 81.219 20.365Q80.788 19.515 80.788 18.361Q80.788 17.228 81.213 16.367Q81.638 15.507 82.419 15.023Q83.200 14.538 84.255 14.538Q85.151 14.538 85.919 14.930Q86.687 15.323 87.155 16.143Q87.623 16.964 87.623 18.256L87.623 18.796L82.495 18.796Q82.528 19.779 83.045 20.293Q83.563 20.807 84.387 20.807Q84.954 20.807 85.359 20.563Q85.764 20.319 85.936 19.851L87.511 20.174Q87.248 21.064 86.420 21.608Q85.593 22.152 84.367 22.152M82.501 17.630L85.956 17.630Q85.876 16.839 85.451 16.361Q85.026 15.883 84.261 15.883Q83.477 15.883 83.019 16.387Q82.561 16.891 82.501 17.630M90.807 17.682L90.807 22L89.093 22L89.093 14.630L90.715 14.630L90.735 16.100Q91.394 14.538 93.015 14.538Q94.156 14.538 94.845 15.263Q95.533 15.988 95.533 17.313L95.533 22L93.820 22L93.820 17.577Q93.820 16.839 93.437 16.417Q93.055 15.995 92.383 15.995Q91.697 15.995 91.252 16.437Q90.807 16.878 90.807 17.682M100.069 22.132Q99.198 22.132 98.510 21.687Q97.821 21.242 97.425 20.392Q97.030 19.541 97.030 18.328Q97.030 17.102 97.432 16.255Q97.834 15.408 98.523 14.973Q99.212 14.538 100.062 14.538Q100.721 14.538 101.140 14.759Q101.558 14.980 101.802 15.286Q102.046 15.593 102.178 15.850L102.250 15.850L102.250 12.178L103.964 12.178L103.964 22L102.283 22L102.283 20.833L102.178 20.833Q102.040 21.097 101.789 21.400Q101.539 21.703 101.120 21.918Q100.701 22.132 100.069 22.132M100.537 20.721Q101.374 20.721 101.829 20.059Q102.283 19.396 102.283 18.322Q102.283 17.247 101.832 16.598Q101.380 15.949 100.537 15.949Q99.667 15.949 99.225 16.621Q98.783 17.293 98.783 18.322Q98.783 19.357 99.228 20.039Q99.673 20.721 100.537 20.721M112.580 22L109.258 22L109.258 12.178L112.646 12.178Q114.109 12.178 115.161 12.768Q116.212 13.358 116.772 14.456Q117.333 15.553 117.333 17.076Q117.333 18.612 116.769 19.716Q116.205 20.820 115.141 21.410Q114.076 22 112.580 22M111.018 13.701L111.018 20.477L112.494 20.477Q115.599 20.477 115.599 17.076Q115.599 13.701 112.540 13.701L111.018 13.701M122.184 22.152Q121.070 22.152 120.269 21.684Q119.468 21.216 119.036 20.365Q118.605 19.515 118.605 18.361Q118.605 17.228 119.030 16.367Q119.455 15.507 120.236 15.023Q121.017 14.538 122.072 14.538Q122.969 14.538 123.736 14.930Q124.504 15.323 124.972 16.143Q125.440 16.964 125.440 18.256L125.440 18.796L120.312 18.796Q120.345 19.779 120.862 20.293Q121.380 20.807 122.204 20.807Q122.771 20.807 123.176 20.563Q123.582 20.319 123.753 19.851L125.328 20.174Q125.065 21.064 124.237 21.608Q123.410 22.152 122.184 22.152M120.319 17.630L123.773 17.630Q123.694 16.839 123.268 16.361Q122.843 15.883 122.079 15.883Q121.294 15.883 120.836 16.387Q120.378 16.891 120.319 17.630M130.918 22L129 22L126.258 14.630L128.090 14.630L129.435 18.638Q129.600 19.126 129.728 19.620Q129.857 20.115 129.982 20.616Q130.101 20.115 130.226 19.620Q130.351 19.126 130.516 18.638L131.854 14.630L133.674 14.630L130.918 22M138.090 22.152Q136.976 22.152 136.175 21.684Q135.374 21.216 134.943 20.365Q134.511 19.515 134.511 18.361Q134.511 17.228 134.936 16.367Q135.361 15.507 136.142 15.023Q136.923 14.538 137.978 14.538Q138.875 14.538 139.642 14.930Q140.410 15.323 140.878 16.143Q141.346 16.964 141.346 18.256L141.346 18.796L136.218 18.796Q136.251 19.779 136.768 20.293Q137.286 20.807 138.110 20.807Q138.677 20.807 139.082 20.563Q139.488 20.319 139.659 19.851L141.234 20.174Q140.971 21.064 140.143 21.608Q139.316 22.152 138.090 22.152M136.225 17.630L139.679 17.630Q139.600 16.839 139.174 16.361Q138.749 15.883 137.985 15.883Q137.200 15.883 136.742 16.387Q136.284 16.891 136.225 17.630M142.816 12.178L144.530 12.178L144.530 22L142.816 22L142.816 12.178M149.547 22.152Q148.472 22.152 147.681 21.674Q146.890 21.196 146.458 20.342Q146.027 19.489 146.027 18.355Q146.027 17.208 146.458 16.348Q146.890 15.487 147.681 15.013Q148.472 14.538 149.547 14.538Q150.621 14.538 151.412 15.013Q152.203 15.487 152.638 16.348Q153.073 17.208 153.073 18.355Q153.073 19.489 152.638 20.342Q152.203 21.196 151.412 21.674Q150.621 22.152 149.547 22.152M149.547 20.761Q150.146 20.761 150.542 20.438Q150.938 20.115 151.135 19.568Q151.333 19.021 151.333 18.348Q151.333 17.669 151.135 17.122Q150.938 16.575 150.542 16.252Q150.146 15.929 149.547 15.929Q148.953 15.929 148.558 16.252Q148.162 16.575 147.968 17.122Q147.773 17.669 147.773 18.348Q147.773 19.021 147.968 19.568Q148.162 20.115 148.558 20.438Q148.953 20.761 149.547 20.761M156.283 24.755L154.570 24.755L154.570 14.630L156.244 14.630L156.244 15.850L156.356 15.850Q156.481 15.593 156.725 15.286Q156.969 14.980 157.391 14.759Q157.813 14.538 158.465 14.538Q159.316 14.538 160.005 14.973Q160.693 15.408 161.099 16.255Q161.504 17.102 161.504 18.328Q161.504 19.541 161.105 20.392Q160.707 21.242 160.021 21.687Q159.335 22.132 158.459 22.132Q157.826 22.132 157.407 21.918Q156.989 21.703 156.738 21.400Q156.488 21.097 156.356 20.833L156.283 20.833L156.283 24.755M157.997 20.721Q158.854 20.721 159.299 20.039Q159.744 19.357 159.744 18.322Q159.744 17.293 159.306 16.621Q158.867 15.949 157.997 15.949Q157.147 15.949 156.699 16.598Q156.250 17.247 156.250 18.322Q156.250 19.396 156.705 20.059Q157.160 20.721 157.997 20.721M166.250 22.152Q165.136 22.152 164.335 21.684Q163.534 21.216 163.103 20.365Q162.671 19.515 162.671 18.361Q162.671 17.228 163.096 16.367Q163.521 15.507 164.302 15.023Q165.083 14.538 166.138 14.538Q167.035 14.538 167.803 14.930Q168.571 15.323 169.039 16.143Q169.507 16.964 169.507 18.256L169.507 18.796L164.378 18.796Q164.411 19.779 164.929 20.293Q165.446 20.807 166.270 20.807Q166.837 20.807 167.242 20.563Q167.648 20.319 167.819 19.851L169.395 20.174Q169.131 21.064 168.304 21.608Q167.476 22.152 166.250 22.152M164.385 17.630L167.839 17.630Q167.760 16.839 167.335 16.361Q166.909 15.883 166.145 15.883Q165.360 15.883 164.902 16.387Q164.444 16.891 164.385 17.630M172.690 22L170.977 22L170.977 14.630L172.638 14.630L172.638 15.863L172.717 15.863Q172.915 15.224 173.409 14.878Q173.903 14.531 174.536 14.531Q174.866 14.531 175.162 14.578L175.162 16.153Q175.057 16.127 174.820 16.097Q174.582 16.067 174.352 16.067Q173.633 16.067 173.162 16.512Q172.690 16.957 172.690 17.663" fill="black"/>
</svg>