<svg width="140" height="36" viewBox="0 0 140 36" fill="none" xmlns="http://www.w3.org/2000/svg">
<rect width="138" height="34" fill="#181818" rx="6" ry="6" x="1" y="1" stroke-width="2" stroke="black" />
<rect width="32" height="36" fill="black"/>
<g transform="translate(6.40 8.399999999999999) scale(0.8)"><path d="M23.5594 14.7228a.5269.5269 0 0 0-.0563-.1191c-.139-.2632-.4768-.3418-1.0074-.2321-1.6533.3411-2.2935.1312-2.5256-.0191 1.342-2.0482 2.445-4.522 3.0411-6.8297.2714-1.0507.7982-3.5237.1222-4.7316a1.5641 1.5641 0 0 0-.1509-.235C21.6931.9086 19.8007.0248 17.5099.0005c-1.4947-.0158-2.7705.3461-3.1161.4794a9.449 9.449 0 0 0-.5159-.0816 8.044 8.044 0 0 0-1.3114-.1278c-1.1822-.0184-2.2038.2642-3.0498.8406-.8573-.3211-4.7888-1.645-7.2219.0788C.9359 2.1526.3086 3.8733.4302 6.3043c.0409.818.5069 3.334 1.2423 5.7436.4598 1.5065.9387 2.7019 1.4334 3.582.553.9942 1.1259 1.5933 1.7143 1.7895.4474.1491 1.1327.1441 1.8581-.7279.8012-.9635 1.5903-1.8258 1.9446-2.2069.4351.2355.9064.3625 1.39.3772a.0569.0569 0 0 0 .0004.0041 11.0312 11.0312 0 0 0-.2472.3054c-.3389.4302-.4094.5197-1.5002.7443-.3102.064-1.1344.2339-1.1464.8115-.0025.1224.0329.2309.0919.3268.2269.4231.9216.6097 1.015.6331 1.3345.3335 2.5044.092 3.3714-.6787-.017 2.231.0775 4.4174.3454 5.0874.2212.5529.7618 1.9045 2.4692 1.9043.2505 0 .5263-.0291.8296-.0941 1.7819-.3821 2.5557-1.1696 2.855-2.9059.1503-.8707.4016-2.8753.5388-4.1012.0169-.0703.0357-.1207.057-.1362.0007-.0005.0697-.0471.4272.0307a.3673.3673 0 0 0 .0443.0068l.2539.0223.0149.001c.8468.0384 1.9114-.1426 2.5312-.4308.6438-.2988 1.8057-1.0323 1.5951-1.6698zM2.371 11.8765c-.7435-2.4358-1.1779-4.8851-1.2123-5.5719-.1086-2.1714.4171-3.6829 1.5623-4.4927 1.8367-1.2986 4.8398-.5408 6.108-.13-.0032.0032-.0066.0061-.0098.0094-2.0238 2.044-1.9758 5.536-1.9708 5.7495-.0002.0823.0066.1989.0162.3593.0348.5873.0996 1.6804-.0735 2.9184-.1609 1.1504.1937 2.2764.9728 3.0892.0806.0841.1648.1631.2518.2374-.3468.3714-1.1004 1.1926-1.9025 2.1576-.5677.6825-.9597.5517-1.0886.5087-.3919-.1307-.813-.5871-1.2381-1.3223-.4796-.839-.9635-2.0317-1.4155-3.5126zm6.0072 5.0871c-.1711-.0428-.3271-.1132-.4322-.1772.0889-.0394.2374-.0902.4833-.1409 1.2833-.2641 1.4815-.4506 1.9143-1.0002.0992-.126.2116-.2687.3673-.4426a.3549.3549 0 0 0 .0737-.1298c.1708-.1513.2724-.1099.4369-.0417.156.0646.3078.26.3695.4752.0291.1016.0619.2945-.0452.4444-.9043 1.2658-2.2216 1.2494-3.1676 1.0128zm2.094-3.988-.0525.141c-.133.3566-.2567.6881-.3334 1.003-.6674-.0021-1.3168-.2872-1.8105-.8024-.6279-.6551-.9131-1.5664-.7825-2.5004.1828-1.3079.1153-2.4468.079-3.0586-.005-.0857-.0095-.1607-.0122-.2199.2957-.2621 1.6659-.9962 2.6429-.7724.4459.1022.7176.4057.8305.928.5846 2.7038.0774 3.8307-.3302 4.7363-.084.1866-.1633.3629-.2311.5454zm7.3637 4.5725c-.0169.1768-.0358.376-.0618.5959l-.146.4383a.3547.3547 0 0 0-.0182.1077c-.0059.4747-.054.6489-.115.8693-.0634.2292-.1353.4891-.1794 1.0575-.11 1.4143-.8782 2.2267-2.4172 2.5565-1.5155.3251-1.7843-.4968-2.0212-1.2217a6.5824 6.5824 0 0 0-.0769-.2266c-.2154-.5858-.1911-1.4119-.1574-2.5551.0165-.5612-.0249-1.9013-.3302-2.6462.0044-.2932.0106-.5909.019-.8918a.3529.3529 0 0 0-.0153-.1126 1.4927 1.4927 0 0 0-.0439-.208c-.1226-.4283-.4213-.7866-.7797-.9351-.1424-.059-.4038-.1672-.7178-.0869.067-.276.1831-.5875.309-.9249l.0529-.142c.0595-.16.134-.3257.213-.5012.4265-.9476 1.0106-2.2453.3766-5.1772-.2374-1.0981-1.0304-1.6343-2.2324-1.5098-.7207.0746-1.3799.3654-1.7088.5321a5.6716 5.6716 0 0 0-.1958.1041c.0918-1.1064.4386-3.1741 1.7357-4.4823a4.0306 4.0306 0 0 1 .3033-.276.3532.3532 0 0 0 .1447-.0644c.7524-.5706 1.6945-.8506 2.802-.8325.4091.0067.8017.0339 1.1742.081 1.939.3544 3.2439 1.4468 4.0359 2.3827.8143.9623 1.2552 1.9315 1.4312 2.4543-1.3232-.1346-2.2234.1268-2.6797.779-.9926 1.4189.543 4.1729 1.2811 5.4964.1353.2426.2522.4522.2889.5413.2403.5825.5515.9713.7787 1.2552.0696.087.1372.1714.1885.245-.4008.1155-1.1208.3825-1.0552 1.717-.0123.1563-.0423.4469-.0834.8148-.0461.2077-.0702.4603-.0994.7662zm.8905-1.6211c-.0405-.8316.2691-.9185.5967-1.0105a2.8566 2.8566 0 0 0 .135-.0406 1.202 1.202 0 0 0 .1342.103c.5703.3765 1.5823.4213 3.0068.1344-.2016.1769-.5189.3994-.9533.6011-.4098.1903-1.0957.333-1.7473.3636-.7197.0336-1.0859-.0807-1.1721-.151zm.5695-9.2712c-.0059.3508-.0542.6692-.1054 1.0017-.055.3576-.112.7274-.1264 1.1762-.0142.4368.0404.8909.0932 1.3301.1066.887.216 1.8003-.2075 2.7014a3.5272 3.5272 0 0 1-.1876-.3856c-.0527-.1276-.1669-.3326-.3251-.6162-.6156-1.1041-2.0574-3.6896-1.3193-4.7446.3795-.5427 1.3408-.5661 2.1781-.463zm.2284 7.0137a12.3762 12.3762 0 0 0-.0853-.1074l-.0355-.0444c.7262-1.1995.5842-2.3862.4578-3.4385-.0519-.4318-.1009-.8396-.0885-1.2226.0129-.4061.0666-.7543.1185-1.0911.0639-.415.1288-.8443.1109-1.3505.0134-.0531.0188-.1158.0118-.1902-.0457-.4855-.5999-1.938-1.7294-3.253-.6076-.7073-1.4896-1.4972-2.6889-2.0395.5251-.1066 1.2328-.2035 2.0244-.1859 2.0515.0456 3.6746.8135 4.8242 2.2824a.908.908 0 0 1 .0667.1002c.7231 1.3556-.2762 6.2751-2.9867 10.5405zm-8.8166-6.1162c-.025.1794-.3089.4225-.6211.4225a.5821.5821 0 0 1-.0809-.0056c-.1873-.026-.3765-.144-.5059-.3156-.0458-.0605-.1203-.178-.1055-.2844.0055-.0401.0261-.0985.0925-.1488.1182-.0894.3518-.1226.6096-.0867.3163.0441.6426.1938.6113.4186zm7.9305-.4114c.0111.0792-.049.201-.1531.3102-.0683.0717-.212.1961-.4079.2232a.5456.5456 0 0 1-.075.0052c-.2935 0-.5414-.2344-.5607-.3717-.024-.1765.2641-.3106.5611-.352.297-.0414.6111.0088.6356.1851z" fill="white"/></g>
<path d="M50.749 22L48.989 22L48.989 12.178L52.660 12.178Q53.788 12.178 54.559 12.600Q55.330 13.022 55.726 13.757Q56.121 14.492 56.121 15.428Q56.121 16.371 55.722 17.106Q55.323 17.841 54.546 18.259Q53.768 18.678 52.634 18.678L50.749 18.678L50.749 22M50.749 13.655L50.749 17.228L52.403 17.228Q53.399 17.228 53.860 16.720Q54.322 16.212 54.322 15.428Q54.322 14.644 53.860 14.149Q53.399 13.655 52.390 13.655L50.749 13.655M60.814 22.152Q59.740 22.152 58.949 21.674Q58.158 21.196 57.726 20.342Q57.294 19.489 57.294 18.355Q57.294 17.208 57.726 16.348Q58.158 15.487 58.949 15.013Q59.740 14.538 60.814 14.538Q61.889 14.538 62.680 15.013Q63.471 15.487 63.906 16.348Q64.341 17.208 64.341 18.355Q64.341 19.489 63.906 20.342Q63.471 21.196 62.680 21.674Q61.889 22.152 60.814 22.152M60.814 20.761Q61.414 20.761 61.810 20.438Q62.205 20.115 62.403 19.568Q62.601 19.021 62.601 18.348Q62.601 17.669 62.403 17.122Q62.205 16.575 61.810 16.252Q61.414 15.929 60.814 15.929Q60.221 15.929 59.826 16.252Q59.430 16.575 59.236 17.122Q59.041 17.669 59.041 18.348Q59.041 19.021 59.236 19.568Q59.430 20.115 59.826 20.438Q60.221 20.761 60.814 20.761M68.626 22.152Q67.354 22.152 66.526 21.608Q65.699 21.064 65.508 20.062L67.110 19.759Q67.400 20.840 68.659 20.840Q69.292 20.840 69.664 20.586Q70.036 20.332 70.036 19.957Q70.036 19.330 69.041 19.113L67.782 18.843Q65.712 18.394 65.712 16.779Q65.712 16.094 66.088 15.593Q66.464 15.092 67.133 14.815Q67.802 14.538 68.685 14.538Q69.938 14.538 70.666 15.059Q71.394 15.580 71.618 16.437L70.089 16.740Q69.957 16.357 69.628 16.087Q69.298 15.817 68.705 15.817Q68.164 15.817 67.795 16.057Q67.426 16.298 67.426 16.674Q67.426 16.997 67.667 17.204Q67.907 17.412 68.474 17.537L69.727 17.801Q71.790 18.243 71.790 19.792Q71.790 20.490 71.388 21.021Q70.986 21.552 70.270 21.852Q69.555 22.152 68.626 22.152M75.237 14.630L76.661 14.630L76.661 15.975L75.237 15.975L75.237 19.924Q75.237 20.326 75.405 20.514Q75.573 20.701 75.969 20.701Q76.088 20.701 76.279 20.672Q76.470 20.642 76.595 20.616L76.865 21.941Q76.582 22.026 76.285 22.063Q75.989 22.099 75.719 22.099Q74.657 22.099 74.090 21.572Q73.523 21.044 73.523 20.069L73.523 15.975L72.475 15.975L72.475 14.630L73.523 14.630L73.523 12.877L75.237 12.877L75.237 14.630M81.196 24.914Q79.865 24.914 79.061 24.426Q78.256 23.938 77.979 23.206L79.430 22.686Q79.601 23.002 79.993 23.305Q80.385 23.608 81.190 23.608Q81.987 23.608 82.469 23.236Q82.950 22.864 82.950 22.073L82.950 20.682L82.805 20.682Q82.673 20.945 82.429 21.229Q82.185 21.512 81.776 21.700Q81.368 21.888 80.728 21.888Q79.885 21.888 79.196 21.489Q78.507 21.090 78.101 20.293Q77.696 19.495 77.696 18.295Q77.696 17.089 78.101 16.249Q78.507 15.408 79.199 14.973Q79.891 14.538 80.741 14.538Q81.394 14.538 81.816 14.756Q82.238 14.973 82.488 15.280Q82.739 15.586 82.871 15.850L82.963 15.850L82.963 14.630L84.644 14.630L84.644 22.020Q84.644 23.009 84.196 23.648Q83.747 24.287 82.969 24.600Q82.192 24.914 81.196 24.914M81.209 20.537Q82.047 20.537 82.501 19.937Q82.956 19.337 82.956 18.282Q82.956 17.234 82.508 16.591Q82.060 15.949 81.209 15.949Q80.339 15.949 79.894 16.615Q79.449 17.280 79.449 18.282Q79.449 19.304 79.898 19.920Q80.346 20.537 81.209 20.537M88.177 22L86.463 22L86.463 14.630L88.124 14.630L88.124 15.863L88.203 15.863Q88.401 15.224 88.896 14.878Q89.390 14.531 90.023 14.531Q90.352 14.531 90.649 14.578L90.649 16.153Q90.543 16.127 90.306 16.097Q90.069 16.067 89.838 16.067Q89.120 16.067 88.648 16.512Q88.177 16.957 88.177 17.663L88.177 22M95.079 22.152Q93.965 22.152 93.164 21.684Q92.363 21.216 91.931 20.365Q91.499 19.515 91.499 18.361Q91.499 17.228 91.924 16.367Q92.350 15.507 93.131 15.023Q93.912 14.538 94.967 14.538Q95.863 14.538 96.631 14.930Q97.399 15.323 97.867 16.143Q98.335 16.964 98.335 18.256L98.335 18.796L93.207 18.796Q93.240 19.779 93.757 20.293Q94.274 20.807 95.098 20.807Q95.665 20.807 96.071 20.563Q96.476 20.319 96.647 19.851L98.223 20.174Q97.959 21.064 97.132 21.608Q96.305 22.152 95.079 22.152M93.213 17.630L96.667 17.630Q96.588 16.839 96.163 16.361Q95.738 15.883 94.973 15.883Q94.189 15.883 93.731 16.387Q93.272 16.891 93.213 17.630M103.332 22.152Q101.618 22.152 100.599 21.361Q99.581 20.570 99.521 19.113L101.255 19.113Q101.314 19.891 101.901 20.270Q102.488 20.649 103.318 20.649Q104.188 20.649 104.739 20.256Q105.289 19.864 105.289 19.231Q105.289 18.658 104.802 18.365Q104.314 18.071 103.516 17.867L102.402 17.577Q101.169 17.260 100.481 16.621Q99.792 15.982 99.792 14.940Q99.792 14.070 100.260 13.421Q100.728 12.771 101.539 12.409Q102.349 12.046 103.378 12.046Q104.426 12.046 105.214 12.409Q106.001 12.771 106.449 13.411Q106.898 14.050 106.917 14.868L105.210 14.868Q105.144 14.241 104.647 13.892Q104.149 13.543 103.351 13.543Q102.521 13.543 102.046 13.909Q101.572 14.274 101.572 14.835Q101.572 15.250 101.825 15.510Q102.079 15.771 102.465 15.929Q102.850 16.087 103.246 16.186L104.162 16.423Q104.887 16.601 105.550 16.934Q106.212 17.267 106.631 17.827Q107.049 18.388 107.049 19.245Q107.049 20.108 106.608 20.764Q106.166 21.420 105.335 21.786Q104.505 22.152 103.332 22.152M112.870 22.132Q111.578 22.132 110.559 21.532Q109.541 20.932 108.948 19.805Q108.354 18.678 108.354 17.096Q108.354 15.507 108.948 14.377Q109.541 13.246 110.559 12.646Q111.578 12.046 112.870 12.046Q114.155 12.046 115.174 12.646Q116.192 13.246 116.782 14.377Q117.372 15.507 117.372 17.096Q117.372 18.427 116.944 19.442Q116.515 20.458 115.777 21.097L117.141 22.850L115.454 22.850L114.630 21.802Q113.819 22.132 112.870 22.132M113.628 20.451L112.316 18.724L113.898 18.724L114.722 19.792Q115.137 19.357 115.368 18.678Q115.599 17.999 115.599 17.096Q115.599 15.408 114.834 14.515Q114.070 13.622 112.870 13.622Q111.664 13.622 110.892 14.515Q110.121 15.408 110.121 17.096Q110.121 18.770 110.892 19.663Q111.664 20.556 112.870 20.556Q113.272 20.556 113.628 20.451M125.197 22L119.099 22L119.099 12.178L120.859 12.178L120.859 20.517L125.197 20.517" fill="white"/>
</svg>